<mxfile host="www.draw.io" modified="2020-02-01T03:41:36.874Z" agent="Mozilla/5.0 (Windows NT 10.0; Win64; x64) AppleWebKit/537.36 (KHTML, like Gecko) Chrome/79.0.3945.130 Safari/537.36" etag="xpCReSPrzixJwd9YA4T5" version="12.6.2" type="github">
  <diagram id="XXYjW8cvs6eSPe_TK9Py" name="Page-1">
    <mxGraphModel dx="1768" dy="512" grid="1" gridSize="10" guides="1" tooltips="1" connect="1" arrows="1" fold="1" page="1" pageScale="1" pageWidth="850" pageHeight="1100" math="0" shadow="0">
      <root>
        <mxCell id="0"/>
        <mxCell id="1" parent="0"/>
        <mxCell id="mT3woQDCBKkYmHbc7A2_-3" value="Altis backup&lt;br&gt;storage" style="shape=dataStorage;whiteSpace=wrap;html=1;fillColor=#dae8fc;strokeColor=#6c8ebf;" parent="1" vertex="1">
          <mxGeometry x="605" y="120" width="100" height="80" as="geometry"/>
        </mxCell>
        <mxCell id="mT3woQDCBKkYmHbc7A2_-4" value="Edenbridge &lt;br&gt;office server&lt;br&gt;storage" style="shape=dataStorage;whiteSpace=wrap;html=1;fillColor=#dae8fc;strokeColor=#6c8ebf;" parent="1" vertex="1">
          <mxGeometry x="280" y="360" width="100" height="80" as="geometry"/>
        </mxCell>
        <mxCell id="mT3woQDCBKkYmHbc7A2_-5" value="a2hosting data storage" style="shape=dataStorage;whiteSpace=wrap;html=1;fillColor=#dae8fc;strokeColor=#6c8ebf;" parent="1" vertex="1">
          <mxGeometry x="280" y="120" width="100" height="80" as="geometry"/>
        </mxCell>
        <mxCell id="XWCJ3FXK9SqCUyiiggYx-11" value="" style="endArrow=classic;html=1;strokeWidth=2;exitX=1;exitY=0.5;exitDx=0;exitDy=0;entryX=0;entryY=0.5;entryDx=0;entryDy=0;" parent="1" target="mT3woQDCBKkYmHbc7A2_-5" edge="1">
          <mxGeometry width="50" height="50" relative="1" as="geometry">
            <mxPoint x="80" y="159.9999999999999" as="sourcePoint"/>
            <mxPoint x="210" y="130" as="targetPoint"/>
          </mxGeometry>
        </mxCell>
        <mxCell id="XWCJ3FXK9SqCUyiiggYx-12" value="" style="endArrow=classic;html=1;strokeWidth=2;exitX=0.5;exitY=0;exitDx=0;exitDy=0;" parent="1" source="mT3woQDCBKkYmHbc7A2_-5" target="NyH1xOctMZm4rYqJ9NfT-2" edge="1">
          <mxGeometry width="50" height="50" relative="1" as="geometry">
            <mxPoint x="310" y="90" as="sourcePoint"/>
            <mxPoint x="40" y="119.99999999999989" as="targetPoint"/>
            <Array as="points">
              <mxPoint x="330" y="80"/>
              <mxPoint x="38" y="80"/>
            </Array>
          </mxGeometry>
        </mxCell>
        <mxCell id="XWCJ3FXK9SqCUyiiggYx-13" value="" style="endArrow=classic;html=1;strokeWidth=2;exitX=0.5;exitY=1;exitDx=0;exitDy=0;entryX=0.5;entryY=0;entryDx=0;entryDy=0;" parent="1" source="mT3woQDCBKkYmHbc7A2_-5" target="NyH1xOctMZm4rYqJ9NfT-3" edge="1">
          <mxGeometry width="50" height="50" relative="1" as="geometry">
            <mxPoint x="260" y="290" as="sourcePoint"/>
            <mxPoint x="40" y="310" as="targetPoint"/>
            <Array as="points">
              <mxPoint x="330" y="280"/>
              <mxPoint x="35" y="280"/>
            </Array>
          </mxGeometry>
        </mxCell>
        <mxCell id="XWCJ3FXK9SqCUyiiggYx-14" value="" style="endArrow=classic;html=1;strokeWidth=2;fontColor=#000000;exitX=1;exitY=0.5;exitDx=0;exitDy=0;entryX=0;entryY=0.5;entryDx=0;entryDy=0;" parent="1" target="mT3woQDCBKkYmHbc7A2_-4" edge="1">
          <mxGeometry width="50" height="50" relative="1" as="geometry">
            <mxPoint x="80" y="400" as="sourcePoint"/>
            <mxPoint x="210" y="380" as="targetPoint"/>
          </mxGeometry>
        </mxCell>
        <mxCell id="XWCJ3FXK9SqCUyiiggYx-16" value="" style="endArrow=classic;html=1;strokeWidth=2;fontColor=#000000;exitX=1;exitY=0.5;exitDx=0;exitDy=0;entryX=0;entryY=0.5;entryDx=0;entryDy=0;" parent="1" source="mT3woQDCBKkYmHbc7A2_-4" target="NyH1xOctMZm4rYqJ9NfT-4" edge="1">
          <mxGeometry width="50" height="50" relative="1" as="geometry">
            <mxPoint x="310" y="530" as="sourcePoint"/>
            <mxPoint x="40" y="560" as="targetPoint"/>
            <Array as="points"/>
          </mxGeometry>
        </mxCell>
        <mxCell id="XWCJ3FXK9SqCUyiiggYx-18" value="Data dumped into a file containing SQL queries." style="text;html=1;strokeColor=none;fillColor=none;align=center;verticalAlign=middle;whiteSpace=wrap;rounded=0;fontColor=#000000;" parent="1" vertex="1">
          <mxGeometry x="80" y="50" width="200" height="20" as="geometry"/>
        </mxCell>
        <mxCell id="XWCJ3FXK9SqCUyiiggYx-19" value="The Mysqldump file is stored in the hosts file system." style="text;html=1;strokeColor=none;fillColor=none;align=center;verticalAlign=middle;whiteSpace=wrap;rounded=0;fontColor=#000000;" parent="1" vertex="1">
          <mxGeometry x="100" y="130" width="160" height="20" as="geometry"/>
        </mxCell>
        <mxCell id="XWCJ3FXK9SqCUyiiggYx-20" value="Cron event executes a PHP file that retrieves the sqldump file to send with SFTP." style="text;html=1;strokeColor=none;fillColor=none;align=center;verticalAlign=middle;whiteSpace=wrap;rounded=0;fontColor=#000000;" parent="1" vertex="1">
          <mxGeometry x="65" y="240" width="230" height="30" as="geometry"/>
        </mxCell>
        <mxCell id="XWCJ3FXK9SqCUyiiggYx-21" value="Mysqldump file is sent to Edenbridges office server with SFTP" style="text;html=1;strokeColor=none;fillColor=none;align=center;verticalAlign=middle;whiteSpace=wrap;rounded=0;fontColor=#000000;" parent="1" vertex="1">
          <mxGeometry x="90" y="360" width="170" height="20" as="geometry"/>
        </mxCell>
        <mxCell id="XWCJ3FXK9SqCUyiiggYx-22" value="Altis retrieves the data from Edenbridges office server." style="text;html=1;strokeColor=none;fillColor=none;align=center;verticalAlign=middle;whiteSpace=wrap;rounded=0;fontColor=#000000;" parent="1" vertex="1">
          <mxGeometry x="370" y="370" width="230" height="20" as="geometry"/>
        </mxCell>
        <mxCell id="XWCJ3FXK9SqCUyiiggYx-23" value="Altis stores the data." style="text;html=1;strokeColor=none;fillColor=none;align=center;verticalAlign=middle;whiteSpace=wrap;rounded=0;fontColor=#000000;" parent="1" vertex="1">
          <mxGeometry x="510" y="250" width="170" height="20" as="geometry"/>
        </mxCell>
        <mxCell id="NyH1xOctMZm4rYqJ9NfT-2" value="&lt;p style=&quot;margin: 0px ; margin-top: 4px ; text-align: center ; text-decoration: underline&quot;&gt;&lt;strong&gt;Process 1&lt;br&gt;&lt;/strong&gt;&lt;/p&gt;&lt;hr&gt;&lt;p style=&quot;margin: 0px ; margin-left: 8px&quot;&gt;&lt;span style=&quot;font-weight: 400 ; white-space: normal&quot;&gt;Cron event mysqldump PHP script&lt;/span&gt;&lt;br&gt;&lt;/p&gt;" style="verticalAlign=middle;align=center;overflow=fill;fontSize=12;fontFamily=Helvetica;html=1;rounded=1;fontStyle=1;strokeWidth=3;fillColor=#f8cecc;strokeColor=#b85450;" vertex="1" parent="1">
          <mxGeometry x="-15" y="120" width="110" height="90" as="geometry"/>
        </mxCell>
        <mxCell id="NyH1xOctMZm4rYqJ9NfT-3" value="&lt;p style=&quot;margin: 0px ; margin-top: 4px ; text-align: center ; text-decoration: underline&quot;&gt;&lt;strong&gt;Process 2&lt;br&gt;&lt;/strong&gt;&lt;/p&gt;&lt;hr&gt;&lt;p style=&quot;margin: 0px ; margin-left: 8px&quot;&gt;&lt;span style=&quot;font-weight: 400 ; white-space: normal&quot;&gt;Cron event&lt;/span&gt;&lt;br style=&quot;font-weight: 400 ; white-space: normal&quot;&gt;&lt;span style=&quot;font-weight: 400 ; white-space: normal&quot;&gt;SFTP backup file to Edenbridge&#39;s server&lt;/span&gt;&lt;br&gt;&lt;/p&gt;" style="verticalAlign=middle;align=center;overflow=fill;fontSize=12;fontFamily=Helvetica;html=1;rounded=1;fontStyle=1;strokeWidth=3;fillColor=#f8cecc;strokeColor=#b85450;" vertex="1" parent="1">
          <mxGeometry x="-20" y="350" width="110" height="90" as="geometry"/>
        </mxCell>
        <mxCell id="NyH1xOctMZm4rYqJ9NfT-4" value="&lt;p style=&quot;margin: 0px ; margin-top: 4px ; text-align: center ; text-decoration: underline&quot;&gt;&lt;strong&gt;Process 3&lt;br&gt;&lt;/strong&gt;&lt;/p&gt;&lt;hr&gt;&lt;p style=&quot;margin: 0px ; margin-left: 8px&quot;&gt;&lt;span style=&quot;font-weight: 400 ; white-space: normal&quot;&gt;Altis backup&lt;/span&gt;&lt;br&gt;&lt;/p&gt;" style="verticalAlign=middle;align=center;overflow=fill;fontSize=12;fontFamily=Helvetica;html=1;rounded=1;fontStyle=1;strokeWidth=3;fillColor=#f8cecc;strokeColor=#b85450;" vertex="1" parent="1">
          <mxGeometry x="600" y="355" width="110" height="90" as="geometry"/>
        </mxCell>
        <mxCell id="NyH1xOctMZm4rYqJ9NfT-9" value="" style="endArrow=classic;html=1;exitX=0.5;exitY=0;exitDx=0;exitDy=0;entryX=0.5;entryY=1;entryDx=0;entryDy=0;" edge="1" parent="1" source="NyH1xOctMZm4rYqJ9NfT-4" target="mT3woQDCBKkYmHbc7A2_-3">
          <mxGeometry width="50" height="50" relative="1" as="geometry">
            <mxPoint x="160" y="700" as="sourcePoint"/>
            <mxPoint x="210" y="650" as="targetPoint"/>
          </mxGeometry>
        </mxCell>
      </root>
    </mxGraphModel>
  </diagram>
</mxfile>
